<svg xmlns="http://www.w3.org/2000/svg" viewBox="0 0 120 120" role="img" aria-label="Shiva Deepak monogram"><title>Shiva Deepak monogram</title><circle cx="60" cy="60" r="52" fill="none" stroke="#ff0000" stroke-width="2" stroke-dasharray="72 11 15 11" stroke-linecap="round"/><path d="M40.1 80.6Q37.7 80.6 36.1 80.1Q34.6 79.7 33.7 79Q32.8 78.4 32.3 77.9Q31.8 77.5 31.5 77.5Q31.2 77.5 30.9 77.9Q30.6 78.4 30.3 79Q30 79.6 29.7 80.1Q29.3 80.5 28.7 80.5Q28 80.5 27.5 80Q27.1 79.5 27.3 78.4L28.7 69.3Q28.9 68.5 29.3 68Q29.7 67.5 30.3 67.5Q31 67.5 31.3 67.9Q31.7 68.4 31.9 69.4L32.1 71.5Q32.4 74.3 34.2 75.9Q36 77.5 39.4 77.5Q41.5 77.5 43.1 76.8Q44.7 76.2 45.7 74.8Q46.7 73.4 46.9 71.4Q47.2 68.9 45.9 66.8Q44.6 64.8 41.2 62.3Q37.6 59.6 35.9 56.9Q34.3 54.2 34.6 50.7Q34.9 47.6 36.6 45.1Q38.3 42.5 41.2 41Q44.2 39.4 48.3 39.4Q52 39.4 54.6 40.7Q57.1 42 58.4 44.1Q59.7 46.1 59.7 48.5Q59.7 49.7 59 50.5Q58.4 51.4 57.3 51.4Q56.3 51.4 55.7 50.8Q55.1 50.2 54.7 49.1L54.3 47.5Q53.8 44.9 52.2 43.6Q50.6 42.2 48 42.2Q45.7 42.2 44 43.1Q42.2 44 41.2 45.6Q40.2 47.1 40 49.1Q39.7 51.4 40.9 53.6Q42.2 55.7 45.4 58.2Q48.5 60.4 50.2 62.3Q51.9 64.2 52.5 66.1Q53.1 68 52.9 70.4Q52.6 73.4 51 75.7Q49.4 78 46.6 79.3Q43.8 80.6 40.1 80.6Z" fill="#f3ecec"/><path d="M55.2 78.6Q55.2 77.9 55.6 77.5Q56 77.1 56.6 76.9L58 76.6Q58.6 76.5 59 76.2Q59.4 76 59.6 75.5Q59.9 75.1 60.1 74.4Q60.3 73.7 60.8 72Q61.3 70.3 61.9 67.9Q62.5 65.5 63.3 62.8Q64 60.1 64.8 57.3Q65.5 54.6 66.2 52.1Q66.8 49.7 67.3 47.9Q67.8 46.1 68 45.3Q68.2 44.5 67.9 44Q67.7 43.5 67 43.3L65.5 43Q65 42.7 64.7 42.4Q64.5 42.1 64.4 41.6Q64.5 40.9 64.9 40.4Q65.3 40 66.3 40H79Q82.5 40 85.4 41.2Q88.3 42.5 90.3 44.8Q92.4 47.1 93.3 50.3Q94.2 53.5 93.8 57.5Q93.3 62.7 91.4 66.9Q89.5 71.1 86.4 74Q83.3 76.9 79.3 78.5Q75.2 80 70.5 80H56.7Q55.9 80 55.6 79.6Q55.2 79.2 55.2 78.6ZM71 77Q74.4 77 77.3 75.4Q80.2 73.8 82.4 70.9Q84.6 68.1 86 64.3Q87.4 60.5 87.9 56.2Q88.2 53.1 87.6 50.6Q87 48.2 85.7 46.5Q84.4 44.8 82.6 43.9Q80.8 43 78.8 43H76.3Q75.4 43 74.7 43.6Q74.1 44.1 73.8 45.5Q73.6 46 73.2 47.6Q72.7 49.3 72.1 51.6Q71.4 53.9 70.7 56.7Q69.9 59.4 69.2 62.2Q68.4 65 67.7 67.4Q67.1 69.9 66.6 71.7Q66.1 73.5 65.9 74.2Q65.6 75.6 66.1 76.3Q66.6 77 67.7 77Z" fill="#ff0000"/></svg>
